<mxfile host="app.diagrams.net" modified="2022-09-05T02:23:12.459Z" agent="5.0 (Windows NT 10.0; Win64; x64) AppleWebKit/537.36 (KHTML, like Gecko) Chrome/104.0.5112.102 Safari/537.36 Edg/104.0.1293.70" etag="4fQTV63_0R_1btVEJFuv" version="20.2.3" type="github">
  <diagram id="VUeCoH2JR9Ty6PS-MxEM" name="第 1 页">
    <mxGraphModel dx="1422" dy="762" grid="1" gridSize="10" guides="1" tooltips="1" connect="1" arrows="1" fold="1" page="1" pageScale="1" pageWidth="827" pageHeight="1169" math="0" shadow="0">
      <root>
        <mxCell id="0" />
        <mxCell id="1" parent="0" />
        <mxCell id="osuFtyBqO4sbrCCpDrCr-1" value="" style="html=1;outlineConnect=0;fillColor=#CCCCCC;strokeColor=#6881B3;gradientColor=none;gradientDirection=north;strokeWidth=2;shape=mxgraph.networks.bus;gradientColor=none;gradientDirection=north;fontColor=#ffffff;perimeter=backbonePerimeter;backboneSize=20;" vertex="1" parent="1">
          <mxGeometry x="10" y="440" width="310" height="20" as="geometry" />
        </mxCell>
        <mxCell id="osuFtyBqO4sbrCCpDrCr-2" value="" style="shape=image;verticalLabelPosition=bottom;labelBackgroundColor=default;verticalAlign=top;aspect=fixed;imageAspect=0;image=data:image/png,iVBORw0KGgoAAAANSUhEUgAAAFoAAABrCAYAAAD3jpUKAAAAAXNSR0IArs4c6QAAGQ5JREFUeF7tnXl8FEXax5+ayUUyk4TcJ4dAIFzuIqKCC+mBFc9X0N3oqhwroK+LqCBLIC4QWAlJQEAOAQG55BARWE/AZDoBjEC4xCXch5AEAjmZSeZKd+3naeg4GebonknCofUPHzJ1fufpXz1V9VQPgd9TsxAgzdLK743A76CbyQh+B/076OYhkBoWFh0TTAovGQxHLNRn6JySiktN0fJv2qIXd4gqrDCbEuNbtIBjuuvgRQhXR2FdZrFuWGPD/k2CXpoQtUFnsSQrCVH0DA4Bf6USDBwHB6oq4LLJCEpCquoonZNVrP93YwH/TYFenBD5opnjV141Gf0eCA6B1i38b+FYZKiFA9WVYOZ5/Ow0JTAxq0i/xVPgvxnQi9pHXL5mNkXF+LWAB4JaOuVm4Xko1F+Hk3qdkI8Q2A0K5fCMi9Xn3AV+z4P+OCFyT7nZ0odSCj2CW0K4j69kVldMRijUXYcyswnL8ITChowS/SuSK7DKeM+C/rhDRKae48eVmoxe3QKDIFEV6A4foAAC7NM1OlFODEBgVmaRfqqcCu850JkdohP9ad3ey0ZjYISvL/QIagkBSi85TOzmxcnyTI0eTtXogKOIH67xFMbMKtF/JqXyewr04vYRp8os5g48BeiqDoQ2/gFSGMjKg5MkuoJnanSCtQPACQUlg2eW6E44q+ieAP1xQuTWakvds2VmE2kfoII/BrVs8r2FOkrhcHWl5XxtjfdNwLmZxXrGEey7GvTidpGjTMAvuGw0+OIk10UdBCgXzZlUPR6Eo4TAga++uPdAbwLwudY+oqjUZAzHxxcnuo4qdXPyBaVaDaFvTeDLr10l385O11Xrqw7dUxa9JCGqoMJs6lltsQga3FkVCCovzyc7Od9S8JARlIuJowUffajQFRdBqbGmqrbOfOSeAL20fdTCGs7y/6Vmk7Kltw8kqtQQZ2dlJweY3Lz+PR4E1V9e4g+v+URRsv/H+uJXjTVVNXc76LntIx7xArqz2GBQeREFJKhUglQoSPNNLz7RsRAyZjw9nZtDTmzeeMv3c9db9EcdIs+XmUxtarg6aOsfAAkqNQR5iZO8XHuUnx91OCplKi29dBEOLl1IzNev263krrXopQlR31VbzAPLzWYS6esHCQFqiPbzk0/KzRIIOGLkaPDu2h12vvMPQB12lu46i17aPnJsLeUyrxiN3jjBdQxQQ7sAlZu43CsW/uIQCB6cDPqya1Cy70c4sHCuy4ruGotOawPB4V4RZ66YjKG4EEDAndWBuC/scpCNlUH9QC+IT8uAE9s2w+EVS6D70BFC1VJA3xUWvbhDxE8VZkv363UWaNXCXwAc2Iw6jBNd/NR0qDEYaO6UiUSUiZ5vjr03QC/tGPmJzlw37JrZpAjz8YVEdSBE+zavDkeOHA1B/QdC9vi3wNpdQ8JyQFcAvX7HLVgWtAt/ggJsLjYa/PEICV215tbhiBeHQOjLf4cjq5bB0ZXL7KqPFNChiV2g96QpsGfNcv7Qtk277pgFy6L2EZfKzKa4Wo6DTqpA6B4Y1FgSK6keQYenpEPxoQOwa1oqOHLXXFm0T2Ag9J40FWIe6g25E8fB4V3Zd8bKcGlCpLbKbEmqsJhJfAt/AXBj7BFLogsAqMPRY1OAbxkCeWnvQfnxYy6LOrLobkNfhW7DR8HBBXPg5NbPhXpuu9exJCFqSi1nmVxqNHmF+vhAN3Vws+6uoT8c/sJQaPns87Bv3qx6MC4p29HomF6PCDJxIWcnHF2zosHTcNu8jpRYFdu5Q2LS6fNnQMnzggU3xSa8M2ChTw2CyNfHwPFtm+HIJ0udyoS9ekSLRqg9R48FdVw85Ken2V283DaLnhir+p4CDGDefBf6PP0cvbxoDtEd3C/FkDzOgzoc/U4KVJWWCjrsalXnqEEEHd3rYSC417xg7i1eiXW5JrPoHTt2xA8cONBh6NSEOPV3hNLHW4VHw5NpGdDm2eegMnsHvThzCuF0N47wGzuhDreaMgNoUDDsmj7ZKRhXbatj44DJmAMnt3wuSW5kg87NzX2G5/klADBZo9F84qhDLMuyDMM4PLZJiQ34EoA8E90iAKL9AiC4U2f4Y8pkCEnsAlc3roHLSxe4Gqvkz1GHo0eOhpBnnoM96WlwcssmyWXtZcTJDgM5cKJz5pV4ZNFarfY1QshSrIQQ8tPVq1cfTU5O1tt2CEEDwIcMw2yz19mUONUWoDAYISNsMUU8+BA8lP4BKL284JfJ/wRP5QT94ahRo+HY+jVwaMUSyWDs9Rl94o6D/wo/r14uW27csei/UUrXW3UET4p2MAzzhHXnEDSlNEaj0XS0CzpWhUfwybagxbxtnn0eeqROBfMvF+i5ie8Q8+ViWVYo+MOTZ4Cu9Ap8P36MbDDWjaFP3Lb/QKEO29Wh1E7JBs2y7NMA8JWdBowoJwzDzMbPblp0EqV0ikajuSUQMCVGtQ4IvOQINNbhrQ6EjkNHQMdhI+DaZ5/S0rXLXeo36nDrKTPAKzYOsieMdRuMOD502VCPRX9YKljrfFjeEKg2ny7Iz5e8MszLy+vL83yeowYJIVfNZvMfvb291wFAEgCUMwwTZpt/Qqx6FQE6zBlosUxATBzc/24Kjer1CFycMYVU5eXc0vyvOjwY8jP+DcftnHLIgYRwUCYQsLteCbb3wJtjoe2AgbDhjeGGotPH90kGzbLsHwDgsIRO594EjVk/ZRhmiHWZCTGqZYTASCmgxXI4YT70fhb1IYRemJ6qMJy6EY8i6nDh+jVw0AMdFpfNWGf5iUL4efUKCcO0nwWfhKSZH8CprZ8L26iy/ejs7Oz7lErlWTk9oJSaLRYLuntXxXIpsaqPAOANOaDFspEP96Z9Zi8EXUE++HfuTq4cKoAf5mZ5ZHkJg/4CfVLToKRgL+Ckt17ziJwh1ufFJwH3OHyDgoCdOK6+T7I1Ojs7O1SpVJa50Ys9DMP8SSw3MVY1jwK87Q5osY7Htm6HffOy4EL2Dje6c6OIuGw263XwQ/o08FUHQs8xY+HLIcmy6sSnodvQEYJMoAXb9kk26LS0NK9+/fpVAoDs8yNK6VMajeZbHEFKnHoWUDreE9DM2s9h75xMtyY8USbaDnhcWDaLkx2Clwu6zYCBghWjTNjucYjflmzQWDA/Pz/EbDZ/TSmV9XxRSs9qNJr2WMeE2IB0AmSSJ6D7fLQCDi1bLBs0Ljh6vjkOTm7bDAcWzmngW8sBLe4160uK4cCCOU6lyy3Q4rek1WpfIoS8DwBtZTxnkxiGyZgYp0qjFKY2J2hxgtKXFAkyYW8rVApofBpwE6nbsBFwcOHc5jszZFn2XwDwLgAESwBeyTBMSEqsOhWAzvAENLN2E+ydk+XSosUJKrRz1wZ7xPb66gq0uNeMq0PUc0xSDmdlex3OQObm5i6llP4d1xougK/a/vLTx4CQWR6BXrMJ9s51DFqcoPC0+uc1Kxzqp3VfHYG2t9cs5SjLbY3OyclprVAodvM8P7J///477QFlWRZXjriCdJQs7DsjJpvKrmY0FWhxgkKZsHazXD1xtqDFpwG9ElsdlgO6gtDr1ToZ0aQ5OTljFArF/Jsd3g4AgxmGweV3g8SyLHomdqWEUsrrLp4/k//e2wmNDVqcoNRxrQRvQq7rh0/B44uWw/bRIwV3LSyxiyAN9vRcKmj88gyBKnmHsyzL4o3RVVZUawBgLsMwk61JOwJNCDkEABO3D3kmnvJ0hWegP4O9c2cJGm07QTlys1xZNH7+9/3/hfKThS43812BxqcBl+BmnQ6+Tp8qL9xAq9U+Rwj5wrbDhJBCnudTNRrNf/AzW9CEkFOEkGn9+vUTdv5SogNeAQVZ2xigVTGxwqoO4ciRCesxiHre8blklxOmWM4RaLEu38Cg+i1V2e6dVqvtTwjJtmcZhBC8SvqtXq8fGhAQgBcbUTo4ABjPMMw86zL/jFG9oCCw0VPQQe0SwKTXuSUTYn9w+d3zrXfh1JZNkiZMZ6CxrrZ/flzYJ7HeUpUNOjc390FKqdPDPUJIJaUUg+IEjSaETE9KSmpw525CvHoQ4elWj0Cv/gxqKiuAnTTOrQ190ZMoP3nc5YLDnmFZWzQC7vR8ssOjLdmgtVptR0KI02tcdjpVxTBMgzu/k+ICn+Qp/42noC/m75bkx9rKBC44wjp3cbhwkaLlCDq0U2dhE8rZ8hvrkg2aZdkoALgspSPWeSilKzUazavi3ybEBvQnQLI9Af2H1KmgKy+XBRrdPgSUnz7N5ULH2RhRh5n0D4RdOkerTOvy7oDGKEODXNAAYDp16lTI66+/XitMhjHqR4HQ3Z6AZlZvhIv5eySBRg+g55hxQjyzuIHUcfgoOLnKflyds/GhTHQfPtLuLp2jcrJBY0VarfZVQkgWAITKBL5dPFucGO//IOUV+5sDNC6bwzp3hR/S0xpoOYJu/+JQOJwxDUpy7c7vDYaHmv7Am+/A5f17G0yaUr4wt0CLrbMsu4lSiu6eUgpw9EoUCsWDffv2PTQuNuB+byBHPAK9aiNc/NGxRaMV4ykH+rHoAdiemCCgjsNfE7pedaIQjs7NgKqTx28ZirilGhgXb1cmuo55V3gyLDr791fc0mjbXuzevTuB47jPKaXdpcAGgIMMw/ScFKPuxBN6vClAW/vEGMmJkNEabU+wrUGLfb+042s48clSMJReEf6ECw5XvnWP1GmAr6A4PDPNIYJGi4/Oy8sbwfN8pkQ5efGb4YP2K+u4c40N2tFes1TQIqmib7+ETgOfEAIWbfesbWn2en82RD3aD/JGvgzVZ07dAtutJbgrq2VZdjGldJQLOTn//V//2ofzNZZ4CvrY5o3C5CYsOsaMA0d7zWjltlFF9izaenwWvQ6OLZoHF7/70umwH5m9EMJ7PgQVPx+BPWNG1ef1aAmOteTn58f27t3baUQLy7L5AODwBMaiq56e88YrUzwBnbRqA1z88Qdo2/8xEDeR5MRfuAItEiv/6TCc2bgWSn/cbRd473lLIOwPDwifFUyeAOU/HRQ2pFDTxR0/2ZOhVqt9nhCCV0M32oYQWPfC2e4dABwxVpe/lzt6uGcLllUbICghUdhPcGcTSSpocVzF2dvh3BcbodImSN0aNFdbA8ryq7dsSMkGnZubO4pS+vHNxqsopbM0Gk267VftAHQppTRdo9HMpwCKibEqzhOLZlZtgL0ffiBp4YGPsW0gTM/3pkPMnxtEsrlSRuHzc5s3CMBrL5cI/7cGjf8/tvhDOPvZpw3qkg2aZdkXAWCDdS2U0lMKhWJ8UlJSfaiYDWgTpXSRRqPB4676lBKrop6ATlq5AfbNlwbaejIUtTOgfUdQhkdKgmubyVRZAafXrQKvOgt0eXsCcDb3HXc+/wQYy3+NypANOi8v70me579x0LtcX1/fV1C/RdCEkKNJSUn328s/MVZFo2yiSeWMuteMWfDz5s8kWbQIWgzRwiW4unPXej9aTrvWeRUWM1SePwdBCZ0aVHFh22Y4Og+dsBtJNmiWZR8FAPuzwo06TYSQdbiQubl7V8YwTLh90Goa5effIGxXzoCZlRtgrwSLFhcceFqCk6W4cJGr0Y76ht6Jt52Xruz+x6tQWfize6Czs7O7K5XKnyQAwVvocTfzrWYYZrhtmUlxahrp27SgxbPDywV77S7BxZWhhPHIznJ1fz7snfC2e6BvHs5ekNmqydfXt52tS5gap6YRTQRaXH47u1/SWBbtjMXBaalQzH7vlnTgZj4evMpNubZXLZoCdH2IwbCRDUK97HW2OUDrL/0C7LBkuO7rrS+7duWA5LBd7DDLskcAwO4E54Q+JYQ8a+2ZvBcXSMN9W3ig0eth7/w59ZOhKBNSls3Yz+YAje348BzkpE+WdwougtRqtfMJISMBoIUM0z7JMEz99PxefCAN9/EctK74krBLhzIh53C2uUBTnoctLw/SF50ulGfRItibkaXfWwWcu2ROKX1PXOD8Kz6QhnkIuqaqCjDUy50YDuysX2gYJL42BuIHPumy755kOLvzG+7r1Ld3y5IO2wZzcnIeI4QsI4S0ktCZendvcnwQDfXx80g6aqqr3T6cxb6KkUjBnbtBWXERBMS3ljAE97LkpE8+M2TBsg6OSkt+xYtWq51CCJkoQU4Ed68xQF/EV+0smOPWyMW9ZgwzEAMV4x97EhJfHyNYemOn8jOnzN3+1NfhayQlgxY7xrLsZgB43lFHMSQMAHrlDhtcEOLjR6zvGcoZXJ/5S+DK8UI4MP8DOcWEQwDUdHu+tVhRU+m3gsCyqKioG8c6Nkk26JueCV7oxFtZ9lI1ACxjhw16N8TbM9ClJ45DwYfCjTuXydq3lnJy3ST6TalRoSCto6Ki6u/ziB1vNNB4ZkgpZTmOe2HAgAHlaa2C+WBvX7ctmlm5Hi4V7HMJ2vpoy51JM6Tb/dD5tTGA/zZGIgS00VFR/ZvKoi8QQlKTkpLqd/6mtQrmgzwFfWA/FMyb5XD8om9t1l2HzYMed5sTys2jGXPBrPQC/sZLuD1JGMf1bGxUVIOLsZ5atIFSulyj0bxl27PGAF10oAD2z8PIh4ZJlImwxK6AfjaClnvTCmsUvRL8wvAaBR4wtH3uBY93/QBoYUx0dBfrXnsCGjiO+wvKhL2vf3qrYD7QQ4suOlgA++f+ClqUCYxGOrVts7CRhBH/MQ89Ihs0eiVYFu8e2r7wpDH0m4DiqejoCOGWGiZ3QQczDFPl7Pma3rolH+jl45FGFx08APvn3tj3dRTlj9DlgBa9EnxVhBiu4GgcqNuPLljuloxQgB9jo6N6ewRaSsv/bt2SV3sI+qd1q+nVo0cIumsYj2wvpk4IRkzsAjtG446B4yTG0+GbvTDEQMoVZaWfHzy13dn2vNMmrwHln4iJiTnotkVLAf1+65acystH4a4fjV6HobYGWrbv6DR43FVkPvbV2d1DZ2NBCXnsi++kDNc6j4kC3RYbHY3HgvXJLemQ0nJjgC47e4bumjrJaR9RCmJ6PWw3GNL6irKcDSlxfKr41qBZi+szaYkQ2G8x0zdbtYousC3RZKBntA7hAry8PbLogiUL+Ut78hTOhmkPtHjnpc2fb1xRlnupSGwP37jQd8lqCZRJEQGYGR0diS8bsJuaDnSbEC5A6T7oXu/PgsKvtsoGLUyaqWnCVQoplzEdgTFxdeDbvTv3f4tWOwvyrAEga2OiI99w9W00Gej0NiGcvwegca/j6Lq13MU9uU6jWUWLxoNZnDTx7rZtCK8rCNaf468GlZn0ltq6Ou+IxK7839Zus/dEUQqUVQcEJAcGBtp1b5tNOjwFjZPhgSWLXILGN8ngZIeXMt3RYWsgFSYDV20xil+s9p0j59+ndZy2ITRySkHo+CiblZ+rL7PJLDqjTWidn9JL6YnXcXDpIu6X3fYtWrzciScvUjaRnIHQ15mhwlTLc5QqgJLzdTx9+oMr+sLS0tLuHE/FqIBKytP5sbHRjuN3nTTSZKAz24TW+TYBaOt3ceCNLXcnOmSCOlxuqq0z8ZwXAKmhhKZmFenFm8Nw6dKlWKWX93Eg5D8xUZENXmfkyoKbTToy24bV+SqUjWrRoj98QbvTYx2uMNVy+jozygRuAm3MKtK/ZAtn06ZNPsnJyWa5UO3lbzKLzmobVufTSKBFf9gnKNjlstkVlGqzkVaajUBBuCt5OLNY38NVmcb4vOlA3xdm8SFKL080+r8bP+Vi+vRV4it7MHzXE3etBnXYbODreB69iGuE0lcySmrsvsGhMcA2m3TMui/M4u0haIy0xzgOR68TlgLExNdBpcnAG7g6BGyhQGdnFdekSinbmHmazKJn3Rdu8SYKjyz6zLdf8UfXr3G6MnQEAzfwK80GuG4Rfi8W9yl3ZBbp3T8d8JB6k4Ge3S7ccs1o8MLft0L5wKglOQn96EMfL+Iu7HK+YLFXJ8KtNBsoL9xZJ2epybdvVlnZjcjy25SaDDSO58N2URNqOHNGtcVMWii9AOOlW0r8FWN8DfK5PC13wYEfbY9XbZ1FAGzmORyXnlLyVlaJbuVtYtug2SYFLbaU1Tb8Oz1nftzEcRDo7QORfv6g9vJxOn45Fm3mOagyGwEnPAroUMCKrBL9r1eo7gDSzQJaHGd6m5Bz1Raz8Hq3MN8WEOHbAvwc/MIxgj788SLuvBPpQB1GmagyG27+0C7dl1lc8/AdwPWWLjQraGx9XExIfJAXLazlLCr8LSyMoUYLt/19QlegdQJgI62jPAECVxTADZpZZNh3J0K+MRffppQSq3rdR6FYZOZ5Jeo3wg7x+fUnnByBNnCow0Zh+UwBLAqgUzOKa2bepmFIbva2gRZ7mBKrXksAXkFhDfL2ESbMAC9vsAVt4TkBMOrwTXdta2aRHu/S3BXptoP+FbiqPgAe9fuF5evh+Po1/NldrKKBPwxwvEWxvkcawC2vibuTid8xoBHSzVcE4W1J4dVBre9LgF/O1V90r6YEXs0q0m+5k4E66tsdBVrs5IRY9WwfP99xFqMR+4fRqfMzi/U3fmDwLk13JGgrOWGdRdHfTczvaNB3E0hXff0dtCtCjfT5/wCRVpwvwnQ38wAAAABJRU5ErkJggg==;" vertex="1" parent="1">
          <mxGeometry x="40" y="220" width="90" height="107" as="geometry" />
        </mxCell>
        <mxCell id="osuFtyBqO4sbrCCpDrCr-3" value="" style="shape=image;verticalLabelPosition=bottom;labelBackgroundColor=default;verticalAlign=top;aspect=fixed;imageAspect=0;image=data:image/png,iVBORw0KGgoAAAANSUhEUgAAAFoAAABrCAYAAAD3jpUKAAAAAXNSR0IArs4c6QAAGQ5JREFUeF7tnXl8FEXax5+ayUUyk4TcJ4dAIFzuIqKCC+mBFc9X0N3oqhwroK+LqCBLIC4QWAlJQEAOAQG55BARWE/AZDoBjEC4xCXch5AEAjmZSeZKd+3naeg4GebonknCofUPHzJ1fufpXz1V9VQPgd9TsxAgzdLK743A76CbyQh+B/076OYhkBoWFh0TTAovGQxHLNRn6JySiktN0fJv2qIXd4gqrDCbEuNbtIBjuuvgRQhXR2FdZrFuWGPD/k2CXpoQtUFnsSQrCVH0DA4Bf6USDBwHB6oq4LLJCEpCquoonZNVrP93YwH/TYFenBD5opnjV141Gf0eCA6B1i38b+FYZKiFA9WVYOZ5/Ow0JTAxq0i/xVPgvxnQi9pHXL5mNkXF+LWAB4JaOuVm4Xko1F+Hk3qdkI8Q2A0K5fCMi9Xn3AV+z4P+OCFyT7nZ0odSCj2CW0K4j69kVldMRijUXYcyswnL8ITChowS/SuSK7DKeM+C/rhDRKae48eVmoxe3QKDIFEV6A4foAAC7NM1OlFODEBgVmaRfqqcCu850JkdohP9ad3ey0ZjYISvL/QIagkBSi85TOzmxcnyTI0eTtXogKOIH67xFMbMKtF/JqXyewr04vYRp8os5g48BeiqDoQ2/gFSGMjKg5MkuoJnanSCtQPACQUlg2eW6E44q+ieAP1xQuTWakvds2VmE2kfoII/BrVs8r2FOkrhcHWl5XxtjfdNwLmZxXrGEey7GvTidpGjTMAvuGw0+OIk10UdBCgXzZlUPR6Eo4TAga++uPdAbwLwudY+oqjUZAzHxxcnuo4qdXPyBaVaDaFvTeDLr10l385O11Xrqw7dUxa9JCGqoMJs6lltsQga3FkVCCovzyc7Od9S8JARlIuJowUffajQFRdBqbGmqrbOfOSeAL20fdTCGs7y/6Vmk7Kltw8kqtQQZ2dlJweY3Lz+PR4E1V9e4g+v+URRsv/H+uJXjTVVNXc76LntIx7xArqz2GBQeREFJKhUglQoSPNNLz7RsRAyZjw9nZtDTmzeeMv3c9db9EcdIs+XmUxtarg6aOsfAAkqNQR5iZO8XHuUnx91OCplKi29dBEOLl1IzNev263krrXopQlR31VbzAPLzWYS6esHCQFqiPbzk0/KzRIIOGLkaPDu2h12vvMPQB12lu46i17aPnJsLeUyrxiN3jjBdQxQQ7sAlZu43CsW/uIQCB6cDPqya1Cy70c4sHCuy4ruGotOawPB4V4RZ66YjKG4EEDAndWBuC/scpCNlUH9QC+IT8uAE9s2w+EVS6D70BFC1VJA3xUWvbhDxE8VZkv363UWaNXCXwAc2Iw6jBNd/NR0qDEYaO6UiUSUiZ5vjr03QC/tGPmJzlw37JrZpAjz8YVEdSBE+zavDkeOHA1B/QdC9vi3wNpdQ8JyQFcAvX7HLVgWtAt/ggJsLjYa/PEICV215tbhiBeHQOjLf4cjq5bB0ZXL7KqPFNChiV2g96QpsGfNcv7Qtk277pgFy6L2EZfKzKa4Wo6DTqpA6B4Y1FgSK6keQYenpEPxoQOwa1oqOHLXXFm0T2Ag9J40FWIe6g25E8fB4V3Zd8bKcGlCpLbKbEmqsJhJfAt/AXBj7BFLogsAqMPRY1OAbxkCeWnvQfnxYy6LOrLobkNfhW7DR8HBBXPg5NbPhXpuu9exJCFqSi1nmVxqNHmF+vhAN3Vws+6uoT8c/sJQaPns87Bv3qx6MC4p29HomF6PCDJxIWcnHF2zosHTcNu8jpRYFdu5Q2LS6fNnQMnzggU3xSa8M2ChTw2CyNfHwPFtm+HIJ0udyoS9ekSLRqg9R48FdVw85Ken2V283DaLnhir+p4CDGDefBf6PP0cvbxoDtEd3C/FkDzOgzoc/U4KVJWWCjrsalXnqEEEHd3rYSC417xg7i1eiXW5JrPoHTt2xA8cONBh6NSEOPV3hNLHW4VHw5NpGdDm2eegMnsHvThzCuF0N47wGzuhDreaMgNoUDDsmj7ZKRhXbatj44DJmAMnt3wuSW5kg87NzX2G5/klADBZo9F84qhDLMuyDMM4PLZJiQ34EoA8E90iAKL9AiC4U2f4Y8pkCEnsAlc3roHLSxe4Gqvkz1GHo0eOhpBnnoM96WlwcssmyWXtZcTJDgM5cKJz5pV4ZNFarfY1QshSrIQQ8tPVq1cfTU5O1tt2CEEDwIcMw2yz19mUONUWoDAYISNsMUU8+BA8lP4BKL284JfJ/wRP5QT94ahRo+HY+jVwaMUSyWDs9Rl94o6D/wo/r14uW27csei/UUrXW3UET4p2MAzzhHXnEDSlNEaj0XS0CzpWhUfwybagxbxtnn0eeqROBfMvF+i5ie8Q8+ViWVYo+MOTZ4Cu9Ap8P36MbDDWjaFP3Lb/QKEO29Wh1E7JBs2y7NMA8JWdBowoJwzDzMbPblp0EqV0ikajuSUQMCVGtQ4IvOQINNbhrQ6EjkNHQMdhI+DaZ5/S0rXLXeo36nDrKTPAKzYOsieMdRuMOD502VCPRX9YKljrfFjeEKg2ny7Iz5e8MszLy+vL83yeowYJIVfNZvMfvb291wFAEgCUMwwTZpt/Qqx6FQE6zBlosUxATBzc/24Kjer1CFycMYVU5eXc0vyvOjwY8jP+DcftnHLIgYRwUCYQsLteCbb3wJtjoe2AgbDhjeGGotPH90kGzbLsHwDgsIRO594EjVk/ZRhmiHWZCTGqZYTASCmgxXI4YT70fhb1IYRemJ6qMJy6EY8i6nDh+jVw0AMdFpfNWGf5iUL4efUKCcO0nwWfhKSZH8CprZ8L26iy/ejs7Oz7lErlWTk9oJSaLRYLuntXxXIpsaqPAOANOaDFspEP96Z9Zi8EXUE++HfuTq4cKoAf5mZ5ZHkJg/4CfVLToKRgL+Ckt17ziJwh1ufFJwH3OHyDgoCdOK6+T7I1Ojs7O1SpVJa50Ys9DMP8SSw3MVY1jwK87Q5osY7Htm6HffOy4EL2Dje6c6OIuGw263XwQ/o08FUHQs8xY+HLIcmy6sSnodvQEYJMoAXb9kk26LS0NK9+/fpVAoDs8yNK6VMajeZbHEFKnHoWUDreE9DM2s9h75xMtyY8USbaDnhcWDaLkx2Clwu6zYCBghWjTNjucYjflmzQWDA/Pz/EbDZ/TSmV9XxRSs9qNJr2WMeE2IB0AmSSJ6D7fLQCDi1bLBs0Ljh6vjkOTm7bDAcWzmngW8sBLe4160uK4cCCOU6lyy3Q4rek1WpfIoS8DwBtZTxnkxiGyZgYp0qjFKY2J2hxgtKXFAkyYW8rVApofBpwE6nbsBFwcOHc5jszZFn2XwDwLgAESwBeyTBMSEqsOhWAzvAENLN2E+ydk+XSosUJKrRz1wZ7xPb66gq0uNeMq0PUc0xSDmdlex3OQObm5i6llP4d1xougK/a/vLTx4CQWR6BXrMJ9s51DFqcoPC0+uc1Kxzqp3VfHYG2t9cs5SjLbY3OyclprVAodvM8P7J///477QFlWRZXjriCdJQs7DsjJpvKrmY0FWhxgkKZsHazXD1xtqDFpwG9ElsdlgO6gtDr1ToZ0aQ5OTljFArF/Jsd3g4AgxmGweV3g8SyLHomdqWEUsrrLp4/k//e2wmNDVqcoNRxrQRvQq7rh0/B44uWw/bRIwV3LSyxiyAN9vRcKmj88gyBKnmHsyzL4o3RVVZUawBgLsMwk61JOwJNCDkEABO3D3kmnvJ0hWegP4O9c2cJGm07QTlys1xZNH7+9/3/hfKThS43812BxqcBl+BmnQ6+Tp8qL9xAq9U+Rwj5wrbDhJBCnudTNRrNf/AzW9CEkFOEkGn9+vUTdv5SogNeAQVZ2xigVTGxwqoO4ciRCesxiHre8blklxOmWM4RaLEu38Cg+i1V2e6dVqvtTwjJtmcZhBC8SvqtXq8fGhAQgBcbUTo4ABjPMMw86zL/jFG9oCCw0VPQQe0SwKTXuSUTYn9w+d3zrXfh1JZNkiZMZ6CxrrZ/flzYJ7HeUpUNOjc390FKqdPDPUJIJaUUg+IEjSaETE9KSmpw525CvHoQ4elWj0Cv/gxqKiuAnTTOrQ190ZMoP3nc5YLDnmFZWzQC7vR8ssOjLdmgtVptR0KI02tcdjpVxTBMgzu/k+ICn+Qp/42noC/m75bkx9rKBC44wjp3cbhwkaLlCDq0U2dhE8rZ8hvrkg2aZdkoALgspSPWeSilKzUazavi3ybEBvQnQLI9Af2H1KmgKy+XBRrdPgSUnz7N5ULH2RhRh5n0D4RdOkerTOvy7oDGKEODXNAAYDp16lTI66+/XitMhjHqR4HQ3Z6AZlZvhIv5eySBRg+g55hxQjyzuIHUcfgoOLnKflyds/GhTHQfPtLuLp2jcrJBY0VarfZVQkgWAITKBL5dPFucGO//IOUV+5sDNC6bwzp3hR/S0xpoOYJu/+JQOJwxDUpy7c7vDYaHmv7Am+/A5f17G0yaUr4wt0CLrbMsu4lSiu6eUgpw9EoUCsWDffv2PTQuNuB+byBHPAK9aiNc/NGxRaMV4ykH+rHoAdiemCCgjsNfE7pedaIQjs7NgKqTx28ZirilGhgXb1cmuo55V3gyLDr791fc0mjbXuzevTuB47jPKaXdpcAGgIMMw/ScFKPuxBN6vClAW/vEGMmJkNEabU+wrUGLfb+042s48clSMJReEf6ECw5XvnWP1GmAr6A4PDPNIYJGi4/Oy8sbwfN8pkQ5efGb4YP2K+u4c40N2tFes1TQIqmib7+ETgOfEAIWbfesbWn2en82RD3aD/JGvgzVZ07dAtutJbgrq2VZdjGldJQLOTn//V//2ofzNZZ4CvrY5o3C5CYsOsaMA0d7zWjltlFF9izaenwWvQ6OLZoHF7/70umwH5m9EMJ7PgQVPx+BPWNG1ef1aAmOteTn58f27t3baUQLy7L5AODwBMaiq56e88YrUzwBnbRqA1z88Qdo2/8xEDeR5MRfuAItEiv/6TCc2bgWSn/cbRd473lLIOwPDwifFUyeAOU/HRQ2pFDTxR0/2ZOhVqt9nhCCV0M32oYQWPfC2e4dABwxVpe/lzt6uGcLllUbICghUdhPcGcTSSpocVzF2dvh3BcbodImSN0aNFdbA8ryq7dsSMkGnZubO4pS+vHNxqsopbM0Gk267VftAHQppTRdo9HMpwCKibEqzhOLZlZtgL0ffiBp4YGPsW0gTM/3pkPMnxtEsrlSRuHzc5s3CMBrL5cI/7cGjf8/tvhDOPvZpw3qkg2aZdkXAWCDdS2U0lMKhWJ8UlJSfaiYDWgTpXSRRqPB4676lBKrop6ATlq5AfbNlwbaejIUtTOgfUdQhkdKgmubyVRZAafXrQKvOgt0eXsCcDb3HXc+/wQYy3+NypANOi8v70me579x0LtcX1/fV1C/RdCEkKNJSUn328s/MVZFo2yiSeWMuteMWfDz5s8kWbQIWgzRwiW4unPXej9aTrvWeRUWM1SePwdBCZ0aVHFh22Y4Og+dsBtJNmiWZR8FAPuzwo06TYSQdbiQubl7V8YwTLh90Goa5effIGxXzoCZlRtgrwSLFhcceFqCk6W4cJGr0Y76ht6Jt52Xruz+x6tQWfize6Czs7O7K5XKnyQAwVvocTfzrWYYZrhtmUlxahrp27SgxbPDywV77S7BxZWhhPHIznJ1fz7snfC2e6BvHs5ekNmqydfXt52tS5gap6YRTQRaXH47u1/SWBbtjMXBaalQzH7vlnTgZj4evMpNubZXLZoCdH2IwbCRDUK97HW2OUDrL/0C7LBkuO7rrS+7duWA5LBd7DDLskcAwO4E54Q+JYQ8a+2ZvBcXSMN9W3ig0eth7/w59ZOhKBNSls3Yz+YAje348BzkpE+WdwougtRqtfMJISMBoIUM0z7JMEz99PxefCAN9/EctK74krBLhzIh53C2uUBTnoctLw/SF50ulGfRItibkaXfWwWcu2ROKX1PXOD8Kz6QhnkIuqaqCjDUy50YDuysX2gYJL42BuIHPumy755kOLvzG+7r1Ld3y5IO2wZzcnIeI4QsI4S0ktCZendvcnwQDfXx80g6aqqr3T6cxb6KkUjBnbtBWXERBMS3ljAE97LkpE8+M2TBsg6OSkt+xYtWq51CCJkoQU4Ed68xQF/EV+0smOPWyMW9ZgwzEAMV4x97EhJfHyNYemOn8jOnzN3+1NfhayQlgxY7xrLsZgB43lFHMSQMAHrlDhtcEOLjR6zvGcoZXJ/5S+DK8UI4MP8DOcWEQwDUdHu+tVhRU+m3gsCyqKioG8c6Nkk26JueCV7oxFtZ9lI1ACxjhw16N8TbM9ClJ45DwYfCjTuXydq3lnJy3ST6TalRoSCto6Ki6u/ziB1vNNB4ZkgpZTmOe2HAgAHlaa2C+WBvX7ctmlm5Hi4V7HMJ2vpoy51JM6Tb/dD5tTGA/zZGIgS00VFR/ZvKoi8QQlKTkpLqd/6mtQrmgzwFfWA/FMyb5XD8om9t1l2HzYMed5sTys2jGXPBrPQC/sZLuD1JGMf1bGxUVIOLsZ5atIFSulyj0bxl27PGAF10oAD2z8PIh4ZJlImwxK6AfjaClnvTCmsUvRL8wvAaBR4wtH3uBY93/QBoYUx0dBfrXnsCGjiO+wvKhL2vf3qrYD7QQ4suOlgA++f+ClqUCYxGOrVts7CRhBH/MQ89Ihs0eiVYFu8e2r7wpDH0m4DiqejoCOGWGiZ3QQczDFPl7Pma3rolH+jl45FGFx08APvn3tj3dRTlj9DlgBa9EnxVhBiu4GgcqNuPLljuloxQgB9jo6N6ewRaSsv/bt2SV3sI+qd1q+nVo0cIumsYj2wvpk4IRkzsAjtG446B4yTG0+GbvTDEQMoVZaWfHzy13dn2vNMmrwHln4iJiTnotkVLAf1+65acystH4a4fjV6HobYGWrbv6DR43FVkPvbV2d1DZ2NBCXnsi++kDNc6j4kC3RYbHY3HgvXJLemQ0nJjgC47e4bumjrJaR9RCmJ6PWw3GNL6irKcDSlxfKr41qBZi+szaYkQ2G8x0zdbtYousC3RZKBntA7hAry8PbLogiUL+Ut78hTOhmkPtHjnpc2fb1xRlnupSGwP37jQd8lqCZRJEQGYGR0diS8bsJuaDnSbEC5A6T7oXu/PgsKvtsoGLUyaqWnCVQoplzEdgTFxdeDbvTv3f4tWOwvyrAEga2OiI99w9W00Gej0NiGcvwegca/j6Lq13MU9uU6jWUWLxoNZnDTx7rZtCK8rCNaf468GlZn0ltq6Ou+IxK7839Zus/dEUQqUVQcEJAcGBtp1b5tNOjwFjZPhgSWLXILGN8ngZIeXMt3RYWsgFSYDV20xil+s9p0j59+ndZy2ITRySkHo+CiblZ+rL7PJLDqjTWidn9JL6YnXcXDpIu6X3fYtWrzciScvUjaRnIHQ15mhwlTLc5QqgJLzdTx9+oMr+sLS0tLuHE/FqIBKytP5sbHRjuN3nTTSZKAz24TW+TYBaOt3ceCNLXcnOmSCOlxuqq0z8ZwXAKmhhKZmFenFm8Nw6dKlWKWX93Eg5D8xUZENXmfkyoKbTToy24bV+SqUjWrRoj98QbvTYx2uMNVy+jozygRuAm3MKtK/ZAtn06ZNPsnJyWa5UO3lbzKLzmobVufTSKBFf9gnKNjlstkVlGqzkVaajUBBuCt5OLNY38NVmcb4vOlA3xdm8SFKL080+r8bP+Vi+vRV4it7MHzXE3etBnXYbODreB69iGuE0lcySmrsvsGhMcA2m3TMui/M4u0haIy0xzgOR68TlgLExNdBpcnAG7g6BGyhQGdnFdekSinbmHmazKJn3Rdu8SYKjyz6zLdf8UfXr3G6MnQEAzfwK80GuG4Rfi8W9yl3ZBbp3T8d8JB6k4Ge3S7ccs1o8MLft0L5wKglOQn96EMfL+Iu7HK+YLFXJ8KtNBsoL9xZJ2epybdvVlnZjcjy25SaDDSO58N2URNqOHNGtcVMWii9AOOlW0r8FWN8DfK5PC13wYEfbY9XbZ1FAGzmORyXnlLyVlaJbuVtYtug2SYFLbaU1Tb8Oz1nftzEcRDo7QORfv6g9vJxOn45Fm3mOagyGwEnPAroUMCKrBL9r1eo7gDSzQJaHGd6m5Bz1Raz8Hq3MN8WEOHbAvwc/MIxgj788SLuvBPpQB1GmagyG27+0C7dl1lc8/AdwPWWLjQraGx9XExIfJAXLazlLCr8LSyMoUYLt/19QlegdQJgI62jPAECVxTADZpZZNh3J0K+MRffppQSq3rdR6FYZOZ5Jeo3wg7x+fUnnByBNnCow0Zh+UwBLAqgUzOKa2bepmFIbva2gRZ7mBKrXksAXkFhDfL2ESbMAC9vsAVt4TkBMOrwTXdta2aRHu/S3BXptoP+FbiqPgAe9fuF5evh+Po1/NldrKKBPwxwvEWxvkcawC2vibuTid8xoBHSzVcE4W1J4dVBre9LgF/O1V90r6YEXs0q0m+5k4E66tsdBVrs5IRY9WwfP99xFqMR+4fRqfMzi/U3fmDwLk13JGgrOWGdRdHfTczvaNB3E0hXff0dtCtCjfT5/wCRVpwvwnQ38wAAAABJRU5ErkJggg==;" vertex="1" parent="1">
          <mxGeometry x="210" y="220" width="90" height="107" as="geometry" />
        </mxCell>
        <mxCell id="osuFtyBqO4sbrCCpDrCr-4" value="" style="endArrow=none;dashed=1;html=1;strokeWidth=3;rounded=0;strokeColor=#FF0000;" edge="1" parent="1">
          <mxGeometry width="50" height="50" relative="1" as="geometry">
            <mxPoint x="135" y="260" as="sourcePoint" />
            <mxPoint x="215" y="260" as="targetPoint" />
          </mxGeometry>
        </mxCell>
        <mxCell id="osuFtyBqO4sbrCCpDrCr-5" value="" style="endArrow=none;dashed=1;html=1;strokeWidth=3;rounded=0;strokeColor=#990000;" edge="1" parent="1">
          <mxGeometry width="50" height="50" relative="1" as="geometry">
            <mxPoint x="135" y="280" as="sourcePoint" />
            <mxPoint x="215" y="280" as="targetPoint" />
          </mxGeometry>
        </mxCell>
        <mxCell id="osuFtyBqO4sbrCCpDrCr-6" value="防火墙" style="rounded=0;whiteSpace=wrap;html=1;fillColor=#008a00;strokeColor=#005700;fontColor=#ffffff;" vertex="1" parent="1">
          <mxGeometry x="140" y="310" width="70" height="20" as="geometry" />
        </mxCell>
      </root>
    </mxGraphModel>
  </diagram>
</mxfile>
